<svg xmlns="http://www.w3.org/2000/svg" version="1.1" xmlns:xlink="http://www.w3.org/1999/xlink" xmlns:svgjs="http://svgjs.dev/svgjs" width="2000" height="2000" viewBox="0 0 2000 2000"><g transform="matrix(1,0,0,1,0,0)"><svg viewBox="0 0 280 280" data-background-color="#f9f9f9" preserveAspectRatio="xMidYMid meet" height="2000" width="2000" xmlns="http://www.w3.org/2000/svg" xmlns:xlink="http://www.w3.org/1999/xlink"><g id="tight-bounds" transform="matrix(1,0,0,1,0,0)"><svg viewBox="0 0 280 280" height="280" width="280"><g><svg viewBox="0 0 280 280" height="280" width="280"><g><svg viewBox="0 0 280 280" height="280" width="280"><g id="textblocktransform"><svg viewBox="0 0 280 280" height="280" width="280" id="textblock"><g><svg viewBox="0 0 280 280" height="280" width="280"><g transform="matrix(1,0,0,1,90.50252531694167,90.50252531694167)"><svg viewBox="0 0 98.99494936611666 98.99494936611666" height="98.99494936611666" width="98.99494936611666"><g id="icon-0"><svg xmlns="http://www.w3.org/2000/svg" xmlns:xlink="http://www.w3.org/1999/xlink" version="1.1" x="0" y="0" viewBox="0 0 60 60" style="enable-background:new 0 0 60 60;" xml:space="preserve" height="98.99494936611666" width="98.99494936611666" class="icon-xg-0" data-fill-palette-color="accent" id="xg-0"><g fill="#297fca" data-fill-palette-color="accent"><g fill="#297fca" data-fill-palette-color="accent"><path d="M31.221 0.031c-0.141-0.033-0.282-0.04-0.422-0.011C30.532 0.013 30.268 0 30 0 13.458 0 0 13.458 0 30s13.458 30 30 30 30-13.458 30-30C60 13.868 47.198 0.675 31.221 0.031zM2 30C2 14.561 14.561 2 30 2c0.232 0 0.461 0.012 0.692 0.018 5.229 3.708 8.294 12.878 4.442 19.479-3.082 5.284-8.348 6.664-13.922 8.124-6.03 1.58-12.816 3.363-17.299 10.537C2.684 37.006 2 33.582 2 30zM41.143 55.484c-0.044 0.074-0.06 0.154-0.083 0.233C37.665 57.184 33.927 58 30 58 19.019 58 9.498 51.643 4.914 42.418 8.948 34.904 15.44 33.2 21.721 31.555c5.725-1.5 11.644-3.05 15.145-9.051 3.813-6.537 1.663-15.286-2.877-20.215 9.063 1.298 16.735 6.953 20.829 14.768-4.929 0.428-9.597 3.501-12.664 8.414-2.596 4.151-1.537 9.048-0.418 14.233C42.89 45.053 44.084 50.583 41.143 55.484zM43.949 54.262c1.897-4.959 0.764-10.244-0.26-14.979-1.031-4.777-2.007-9.289 0.157-12.752 2.851-4.562 7.392-7.418 11.902-7.521 1.446 3.376 2.25 7.091 2.25 10.99C58 40.361 52.338 49.42 43.949 54.262z" fill="#297fca" data-fill-palette-color="accent"></path></g></g></svg></g></svg></g><g id="text-0"><path d="M29.849 105.179c0.286-0.908 0.322-1.982 0.107-3.221v0l0.36-0.289 2.038 1.004c0.217 1.694 0.181 3.184-0.108 4.471v0c-0.793 1.465-1.721 2.409-2.783 2.831-1.067 0.414-2.406 0.367-4.016-0.14v0l-2.884-1.044-8.507-2.642-0.815 2.585-0.298 0.092-1.861-0.814 0.791-2.51-3.045-0.96-0.339-3.216 0.395-0.237 3.958 1.341 1.761-5.582 0.297-0.092 1.861 0.814-1.748 5.544 11.061 3.716c1.088 0.371 1.916 0.422 2.483 0.153 0.569-0.275 1-0.876 1.292-1.804z" fill="#297fca" data-fill-palette-color="primary"></path><path d="M35.41 76.564l-5.83 10.883 0.069 0.038c2.121 1.147 4.009 1.548 5.666 1.205 1.651-0.347 2.953-1.401 3.907-3.164v0c0.478-0.884 0.812-1.846 1.001-2.886 0.189-1.04 0.216-2.071 0.081-3.093v0l0.39-0.181 2.326 1.851c-0.092 2.228-0.616 4.226-1.573 5.994v0c-1.337 2.473-3.178 3.991-5.521 4.554-2.343 0.563-4.89 0.1-7.64-1.388v0c-2.779-1.503-4.607-3.406-5.482-5.709-0.875-2.303-0.665-4.654 0.633-7.051v0c1.091-2.017 2.511-3.269 4.26-3.756 1.753-0.493 3.652-0.187 5.698 0.919v0c0.682 0.369 1.298 0.769 1.848 1.201v0zM25.56 78.765c-0.684 1.265-0.844 2.542-0.48 3.829 0.364 1.287 1.217 2.473 2.557 3.557v0l4.368-8.449-0.487-0.363c-1.289-0.697-2.447-0.924-3.474-0.681-1.028 0.243-1.856 0.946-2.484 2.107z" fill="#297fca" data-fill-palette-color="primary"></path><path d="M59.689 62.51l-9.908-9.01c-0.865-0.797-1.733-1.197-2.604-1.203-0.88-0.004-1.689 0.412-2.427 1.251v0c-1.194 1.356-1.716 3.495-1.567 6.418v0l4.068 3.581 6.611 5.583-2.253 2.559-6.121-5.677-8.483-7.244 1.907-2.614 2.16 1.901 0.176-0.2c-0.011-2.373 0.427-4.412 1.314-6.115v0c1.424-1.617 2.888-2.52 4.393-2.71 1.501-0.184 2.943 0.35 4.326 1.603v0l4.142 3.764 6.538 5.532z" fill="#297fca" data-fill-palette-color="primary"></path><path d="M81.646 45.533l-7.438-11.137c-0.647-0.982-1.393-1.581-2.236-1.796-0.853-0.217-1.738-0.008-2.657 0.627v0c-1.486 1.027-2.51 2.977-3.071 5.85v0l3.082 4.457 5.066 7.015-2.804 1.939-4.568-6.988-6.482-9.079 2.482-2.075 1.636 2.366 0.219-0.151c0.562-2.305 1.48-4.178 2.753-5.617v0c1.772-1.225 3.411-1.748 4.918-1.568 1.501 0.184 2.771 1.051 3.81 2.6v0l3.11 4.654 5.008 6.948z" fill="#297fca" data-fill-palette-color="primary"></path><path d="M96.404 38.173l-3.138-7.736-4.517-10.199 2.934-1.581 4.315 10.275 3.493 7.915zM86.769 11.255c0.525-0.225 1.015-0.25 1.47-0.073 0.451 0.185 0.795 0.552 1.03 1.102v0c0.251 0.586 0.287 1.117 0.106 1.595-0.184 0.487-0.566 0.854-1.146 1.103v0c-0.555 0.238-1.051 0.265-1.487 0.081-0.439-0.19-0.783-0.575-1.032-1.155v0c-0.238-0.555-0.267-1.072-0.087-1.55 0.184-0.487 0.566-0.854 1.146-1.103z" fill="#297fca" data-fill-palette-color="primary"></path><path d="M113.47 12.295c1.597-0.353 3.208-0.386 4.832-0.098v0l0.142 2.834-0.473 0.236c-1.609-0.613-3.058-0.778-4.347-0.493v0c-0.949 0.21-1.66 0.646-2.132 1.309-0.472 0.663-0.625 1.373-0.458 2.129v0c0.167 0.757 0.603 1.3 1.308 1.629 0.705 0.329 1.754 0.648 3.148 0.959v0c1.201 0.259 2.177 0.521 2.929 0.786 0.744 0.26 1.43 0.673 2.06 1.24 0.623 0.569 1.043 1.34 1.258 2.315v0c0.23 1.039 0.177 2.066-0.156 3.082-0.334 1.016-0.96 1.911-1.879 2.686-0.912 0.773-2.084 1.318-3.514 1.634v0c-1.963 0.434-3.928 0.384-5.896-0.15v0l-0.218-2.949 0.33-0.336c0.93 0.494 1.891 0.823 2.882 0.988 0.992 0.164 1.895 0.157 2.709-0.023v0c1.033-0.228 1.809-0.702 2.33-1.423 0.515-0.713 0.686-1.46 0.513-2.243v0c-0.167-0.757-0.603-1.3-1.308-1.628-0.706-0.335-1.753-0.656-3.139-0.961v0c-1.209-0.264-2.191-0.525-2.947-0.782-0.764-0.262-1.461-0.69-2.09-1.284-0.636-0.593-1.068-1.409-1.298-2.448v0c-0.359-1.623-0.056-3.086 0.907-4.388 0.965-1.296 2.467-2.17 4.507-2.621z" fill="#297fca" data-fill-palette-color="primary"></path><path d="M154.995 0l-1.699 21.494-0.363 8.646-3.392-0.228 0.818-8.359 1.224-21.486z" fill="#297fca" data-fill-palette-color="primary"></path><path d="M182.245 26.801l-11.905-3.271-0.021 0.076c-0.648 2.322-0.621 4.253 0.082 5.792 0.704 1.533 2.021 2.569 3.951 3.108v0c0.968 0.27 1.98 0.382 3.036 0.336 1.056-0.046 2.068-0.248 3.034-0.606v0l0.263 0.34-1.29 2.678c-2.193 0.404-4.257 0.336-6.193-0.204v0c-2.708-0.756-4.596-2.214-5.664-4.374-1.068-2.16-1.182-4.746-0.342-7.757v0c0.849-3.043 2.3-5.247 4.352-6.612 2.052-1.364 4.39-1.68 7.016-0.947v0c2.208 0.616 3.744 1.723 4.607 3.322 0.87 1.6 0.992 3.52 0.367 5.759v0c-0.208 0.747-0.462 1.436-0.761 2.069v0zM177.915 17.685c-1.386-0.387-2.666-0.26-3.84 0.381-1.175 0.641-2.141 1.735-2.901 3.283v0l9.206 2.385 0.247-0.555c0.394-1.411 0.358-2.591-0.107-3.539-0.465-0.948-1.334-1.6-2.605-1.955z" fill="#297fca" data-fill-palette-color="primary"></path><path d="M205.908 27.07c1.635 0.899 2.702 2.011 3.203 3.336 0.501 1.325 0.363 2.693-0.413 4.103v0c-0.234 0.426-1.162 1.928-2.784 4.508v0c-1.616 2.582-2.549 4.101-2.799 4.555v0c-0.304 0.553-0.425 0.984-0.364 1.296 0.055 0.308 0.299 0.581 0.731 0.818v0c0.374 0.206 0.841 0.365 1.401 0.478v0l0.16 0.426-1.238 1.534c-0.965 0.024-1.82-0.12-2.563-0.432v0c-0.736-0.502-1.205-1.121-1.409-1.854-0.203-0.734-0.089-1.522 0.345-2.364v0l-0.268-0.147c-2.118 0.634-3.981 0.838-5.589 0.614v0c-1.686-0.928-2.769-2.074-3.247-3.44-0.482-1.36-0.322-2.767 0.479-4.224v0c0.611-1.111 1.392-1.828 2.343-2.152 0.954-0.33 2.085-0.315 3.393 0.045v0l6.892 1.925 1.392-2.428c0.538-0.978 0.694-1.875 0.468-2.689-0.221-0.811-0.809-1.48-1.764-2.006v0c-0.858-0.472-1.823-0.741-2.897-0.806-1.079-0.069-2.344 0.056-3.794 0.376v0l-0.217-0.322 0.803-2.359c2.947-0.41 5.526-0.007 7.736 1.209zM203.088 38.001l-6.192-1.685c-0.589-0.129-1.068-0.123-1.438 0.018-0.37 0.141-0.701 0.477-0.992 1.006v0c-0.456 0.829-0.58 1.6-0.374 2.314 0.21 0.723 0.706 1.299 1.489 1.73v0c1.381 0.76 3.279 0.642 5.694-0.354v0z" fill="#297fca" data-fill-palette-color="primary"></path><path d="M237.332 53.986c-0.833-0.412-2.011-1.079-3.533-2.003v0l-0.185 0.072c-0.21 1.168-0.797 2.281-1.761 3.34v0c-1.41 1.55-3.046 2.313-4.907 2.289-1.861-0.024-3.671-0.836-5.43-2.436v0c-0.7-0.637-1.281-1.321-1.743-2.053v0c-0.612-0.05-1.06-0.05-1.346 0.001-0.281 0.055-0.517 0.187-0.707 0.396v0c-0.407 0.447-0.415 1.012-0.024 1.696 0.385 0.679 1.119 1.684 2.199 3.014v0c1.079 1.293 1.913 2.402 2.501 3.328 0.593 0.93 0.959 1.894 1.099 2.892 0.14 0.998-0.177 1.922-0.951 2.772v0c-0.813 0.894-1.86 1.434-3.139 1.62-1.279 0.195-2.64 0.027-4.083-0.505-1.434-0.532-2.778-1.369-4.031-2.51v0c-1.696-1.543-2.663-3.13-2.903-4.759-0.24-1.639 0.199-3.074 1.317-4.303v0c1.439-0.556 3.214-0.628 5.326-0.217v0l0.146-0.16c-0.555-0.932-0.861-1.782-0.915-2.551-0.055-0.769 0.225-1.492 0.839-2.167v0c1.123-0.337 2.36-0.397 3.709-0.182v0l0.113-0.124c-0.286-1.042-0.29-2.067-0.012-3.076 0.278-1.008 0.833-1.969 1.663-2.882v0c1.446-1.589 3.092-2.368 4.94-2.339 1.848 0.038 3.632 0.84 5.352 2.405v0c1.127 1.026 1.909 2.084 2.347 3.175v0c1.719 1.058 3.587 2.1 5.602 3.126v0l0.082 0.421zM223.205 53.64c1.064 0.968 2.157 1.421 3.28 1.359 1.127-0.067 2.172-0.63 3.136-1.689v0c0.928-1.02 1.365-2.057 1.311-3.11-0.045-1.053-0.587-2.053-1.627-2.999v0c-1.064-0.968-2.153-1.435-3.268-1.402-1.114 0.034-2.154 0.58-3.117 1.64v0c-0.928 1.02-1.374 2.071-1.337 3.153 0.042 1.086 0.583 2.102 1.622 3.048zM219.877 65.746c0.641-0.704 0.731-1.515 0.269-2.433-0.462-0.927-1.317-2.154-2.566-3.681v0l-0.875-1.089c-1.253-0.243-2.289-0.329-3.109-0.258-0.815 0.066-1.446 0.345-1.893 0.836v0c-0.557 0.612-0.715 1.396-0.475 2.352 0.235 0.951 0.895 1.92 1.979 2.906v0c1.229 1.119 2.482 1.806 3.759 2.062 1.286 0.256 2.256 0.024 2.911-0.695z" fill="#297fca" data-fill-palette-color="primary"></path><path d="M243.061 87.757l-0.051 0.451-1.798 0.807c-0.867-0.411-1.564-0.926-2.089-1.546v0c-0.373-0.747-0.507-1.463-0.4-2.147 0.11-0.679 0.502-1.37 1.174-2.075v0l-0.144-0.212c-2.25-0.551-4.082-1.457-5.497-2.719v0c-1.193-1.754-1.685-3.37-1.474-4.848 0.21-1.478 1.091-2.729 2.643-3.753v0l4.549-3.035 6.942-4.878 2.179 2.677-11.248 7.342c-0.972 0.661-1.573 1.408-1.802 2.239-0.234 0.835-0.045 1.703 0.568 2.605v0c1.001 1.472 2.717 2.458 5.147 2.958v0l11.813-8.037 2.084 2.539-13.002 8.583c-0.5 0.34-0.798 0.654-0.896 0.943-0.094 0.294-0.011 0.631 0.248 1.012v0c0.255 0.375 0.606 0.739 1.054 1.094z" fill="#297fca" data-fill-palette-color="primary"></path><path d="M259.236 108.678l-4.398-11.536-0.074 0.028c-2.256 0.85-3.797 2.013-4.624 3.489-0.821 1.474-0.878 3.149-0.171 5.024v0c0.354 0.941 0.862 1.823 1.524 2.648 0.662 0.825 1.422 1.521 2.281 2.089v0l-0.118 0.413-2.922 0.542c-1.622-1.53-2.788-3.235-3.496-5.116v0c-0.991-2.631-0.931-5.016 0.179-7.154 1.111-2.138 3.129-3.758 6.056-4.861v0c2.957-1.114 5.592-1.246 7.905-0.397 2.313 0.849 3.95 2.548 4.911 5.099v0c0.808 2.145 0.823 4.039 0.044 5.68-0.776 1.647-2.253 2.881-4.429 3.7v0c-0.725 0.273-1.432 0.476-2.119 0.609v0zM264.03 99.797c-0.507-1.346-1.366-2.304-2.577-2.872-1.211-0.569-2.665-0.702-4.362-0.4v0l3.517 8.836 0.594-0.129c1.371-0.516 2.301-1.242 2.791-2.178 0.49-0.936 0.502-2.021 0.037-3.257z" fill="#297fca" data-fill-palette-color="primary"></path><path d="M15.432 189.23c0.317 0.988 0.96 1.972 1.928 2.952v0l-0.133 0.487-2.451 0.393c-1.27-1.38-2.185-2.739-2.744-4.077v0c-0.214-1.808 0.022-3.235 0.707-4.283 0.685-1.047 1.913-1.855 3.684-2.422v0l3.226-0.878 9.274-3.024-0.905-2.824 0.215-0.266 2.181-0.46 0.878 2.739 3.321-1.064 2.334 2.667-0.192 0.465-4.384 1.301 1.957 6.109-0.215 0.265-2.183 0.452-1.942-6.062-12.233 3.671c-1.205 0.352-1.976 0.83-2.314 1.435-0.331 0.603-0.334 1.411-0.009 2.424z" fill="#297fca" data-fill-palette-color="primary"></path><path d="M36.045 213.235l-6.492-11.869-0.087 0.047c-2.32 1.261-3.816 2.753-4.486 4.478-0.673 1.719-0.485 3.545 0.565 5.479v0c0.527 0.97 1.211 1.85 2.052 2.641 0.841 0.791 1.768 1.432 2.782 1.921v0l-0.064 0.461-3.091 1.039c-1.986-1.426-3.504-3.105-4.554-5.039v0c-1.468-2.701-1.758-5.294-0.873-7.779 0.886-2.485 2.832-4.544 5.839-6.177v0c3.036-1.649 5.872-2.188 8.508-1.616 2.636 0.572 4.665 2.168 6.089 4.788v0c1.201 2.211 1.502 4.264 0.901 6.16-0.591 1.898-2.006 3.456-4.245 4.672v0c-0.745 0.405-1.48 0.729-2.207 0.975v0zM39.912 202.87c-0.749-1.38-1.822-2.288-3.219-2.726-1.405-0.44-3.003-0.368-4.794 0.216v0l5.136 9.063 0.623-0.238c1.408-0.765 2.31-1.692 2.705-2.781 0.389-1.086 0.239-2.264-0.451-3.534z" fill="#297fca" data-fill-palette-color="primary"></path><path d="M44.729 240.978l11.137-9.539c0.986-0.829 1.541-1.718 1.664-2.669 0.123-0.951-0.22-1.884-1.03-2.8v0c-1.31-1.481-3.564-2.342-6.759-2.583v0l-4.45 3.937-6.961 6.422-2.468-2.789 7.004-5.882 9.013-8.238 2.587 2.434-2.361 2.089 0.189 0.214c2.582 0.311 4.737 1.067 6.465 2.266v0c1.563 1.766 2.345 3.478 2.346 5.134 0.001 1.657-0.774 3.15-2.326 4.479v0l-4.648 3.995-6.901 6.356z" fill="#297fca" data-fill-palette-color="primary"></path><path d="M70.935 261.298l8.474-11.966c0.754-1.044 1.075-2.042 0.963-2.995-0.112-0.952-0.673-1.774-1.681-2.464v0c-1.632-1.117-4.027-1.402-7.186-0.857v0l-3.355 4.903-5.185 7.927-3.074-2.104 5.359-7.413 6.731-10.186 3.103 1.729-1.78 2.602 0.236 0.161c2.58-0.328 4.854-0.121 6.822 0.621v0c1.946 1.332 3.122 2.801 3.527 4.407 0.405 1.606 0.017 3.243-1.163 4.911v0l-3.534 5.008-5.143 7.847z" fill="#297fca" data-fill-palette-color="primary"></path><path d="M88.652 270.168l3.762-8.337 4.645-11.291 3.472 1.124-4.871 11.195-3.617 8.752zM102.673 242.178c0.574 0.244 0.963 0.613 1.167 1.107 0.195 0.497 0.164 1.048-0.092 1.652v0c-0.27 0.635-0.666 1.062-1.189 1.283-0.525 0.226-1.104 0.205-1.739-0.066v0c-0.604-0.257-0.998-0.632-1.181-1.123-0.186-0.486-0.144-1.046 0.126-1.681v0c0.26-0.61 0.651-1.026 1.173-1.247 0.516-0.223 1.094-0.198 1.735 0.075z" fill="#297fca" data-fill-palette-color="primary"></path><path d="M118.252 256.123c1.745 0.385 3.357 1.094 4.838 2.128v0l-1.171 2.88-0.578 0.013c-1.309-1.352-2.673-2.184-4.09-2.497v0c-1.039-0.229-1.947-0.124-2.724 0.317-0.77 0.442-1.247 1.077-1.429 1.904v0c-0.184 0.834-0.001 1.574 0.549 2.22 0.549 0.653 1.441 1.455 2.677 2.408v0c1.071 0.815 1.92 1.524 2.548 2.126 0.619 0.608 1.111 1.335 1.475 2.183 0.357 0.852 0.416 1.817 0.179 2.895v0c-0.251 1.135-0.776 2.129-1.577 2.981-0.8 0.853-1.834 1.452-3.101 1.798-1.267 0.346-2.683 0.346-4.248 0.001v0c-2.149-0.474-4.077-1.432-5.784-2.872v0l1.152-3.025 0.475-0.188c0.697 0.927 1.498 1.7 2.405 2.317 0.911 0.625 1.81 1.035 2.695 1.231v0c1.135 0.251 2.125 0.14 2.97-0.333 0.844-0.473 1.361-1.139 1.551-1.999v0c0.184-0.834 0.004-1.573-0.54-2.218-0.549-0.653-1.441-1.455-2.677-2.407v0c-1.078-0.816-1.937-1.527-2.576-2.133-0.639-0.612-1.133-1.357-1.485-2.235-0.35-0.884-0.399-1.894-0.148-3.03v0c0.392-1.777 1.365-3.089 2.917-3.937 1.553-0.848 3.452-1.024 5.697-0.528z" fill="#297fca" data-fill-palette-color="primary"></path><path d="M151.201 246.76l0.966 23.601 0.734 9.443-3.72 0.196-0.207-9.195-1.465-23.515z" fill="#297fca" data-fill-palette-color="primary"></path><path d="M181.236 262.396l-13.077 3.468 0.025 0.095c0.67 2.554 1.762 4.363 3.277 5.426 1.508 1.065 3.327 1.318 5.455 0.76v0c1.068-0.28 2.086-0.734 3.055-1.361 0.97-0.628 1.813-1.375 2.53-2.242v0l0.432 0.172 0.271 3.25c-1.859 1.587-3.853 2.66-5.981 3.218v0c-2.974 0.779-5.561 0.442-7.762-1.011-2.201-1.454-3.735-3.836-4.603-7.146v0c-0.876-3.342-0.722-6.225 0.463-8.648 1.185-2.423 3.22-4.012 6.105-4.768v0c2.434-0.638 4.499-0.439 6.196 0.597 1.702 1.027 2.876 2.774 3.523 5.239v0c0.215 0.82 0.355 1.612 0.419 2.376v0zM172.095 256.164c-1.519 0.398-2.657 1.223-3.416 2.474-0.763 1.259-1.075 2.828-0.935 4.707v0l10.027-2.822-0.082-0.661c-0.406-1.55-1.091-2.648-2.054-3.292-0.962-0.638-2.141-0.773-3.54-0.406z" fill="#297fca" data-fill-palette-color="primary"></path><path d="M194.419 244.027c1.804-0.958 3.461-1.27 4.972-0.934 1.516 0.333 2.687 1.277 3.512 2.832v0c0.25 0.47 1.072 2.22 2.466 5.25v0c1.394 3.031 2.224 4.795 2.489 5.294v0c0.327 0.615 0.65 0.986 0.971 1.114 0.318 0.136 0.712 0.079 1.181-0.171v0c0.418-0.222 0.846-0.557 1.285-1.005v0l0.487 0.12 0.664 2.046c-0.557 0.898-1.201 1.597-1.932 2.098v0c-0.905 0.369-1.753 0.425-2.544 0.168-0.794-0.248-1.448-0.822-1.964-1.723v0l-0.287 0.152c-0.686 2.321-1.62 4.148-2.8 5.483v0c-1.856 0.986-3.553 1.293-5.091 0.919-1.532-0.377-2.724-1.368-3.578-2.975v0c-0.65-1.224-0.842-2.368-0.574-3.433 0.27-1.073 0.963-2.1 2.08-3.08v0l5.902-5.166-1.403-2.725c-0.573-1.079-1.3-1.76-2.179-2.044-0.877-0.278-1.84-0.138-2.891 0.419v0c-0.946 0.502-1.774 1.225-2.485 2.169-0.702 0.946-1.346 2.177-1.932 3.693v0l-0.418 0.01-1.675-2.145c1.388-2.946 3.303-5.068 5.744-6.366zM202.742 253.162l-5.266 4.662c-0.462 0.461-0.74 0.903-0.836 1.325-0.098 0.431 0.007 0.937 0.315 1.517v0c0.487 0.917 1.124 1.493 1.912 1.729 0.785 0.245 1.609 0.138 2.474-0.321v0c1.526-0.811 2.554-2.621 3.083-5.432v0z" fill="#297fca" data-fill-palette-color="primary"></path><path d="M225.779 222.778c-0.54 0.856-1.404 2.061-2.591 3.612v0l0.051 0.206c1.248 0.368 2.393 1.14 3.434 2.315v0c1.521 1.716 2.159 3.585 1.916 5.609-0.243 2.024-1.34 3.9-3.292 5.63v0c-0.772 0.684-1.584 1.233-2.437 1.647v0c-0.128 0.658-0.178 1.146-0.152 1.463 0.023 0.313 0.139 0.588 0.349 0.824v0c0.436 0.492 1.05 0.566 1.843 0.223 0.788-0.339 1.969-1.017 3.543-2.034v0c1.532-1.024 2.838-1.804 3.917-2.34 1.079-0.535 2.169-0.821 3.269-0.856 1.105-0.031 2.073 0.423 2.906 1.361v0c0.876 0.988 1.341 2.191 1.395 3.609 0.063 1.418-0.281 2.877-1.032 4.378-0.742 1.5-1.809 2.867-3.2 4.099v0c-1.878 1.664-3.72 2.533-5.525 2.606-1.81 0.068-3.318-0.579-4.524-1.941v0c-0.437-1.632-0.31-3.574 0.379-5.827v0l-0.15-0.169c-1.076 0.489-2.037 0.717-2.883 0.684-0.846-0.023-1.602-0.411-2.268-1.162v0c-0.235-1.266-0.154-2.62 0.245-4.062v0l-0.124-0.14c-1.17 0.195-2.287 0.083-3.351-0.335-1.068-0.423-2.049-1.138-2.942-2.146v0c-1.564-1.765-2.218-3.652-1.962-5.66 0.252-2.014 1.331-3.866 3.239-5.556v0c1.244-1.102 2.488-1.828 3.733-2.176v0c1.352-1.743 2.705-3.653 4.058-5.731v0l0.47-0.034zM223.752 238.109c1.175-1.041 1.793-2.177 1.853-3.406 0.065-1.234-0.423-2.438-1.465-3.613v0c-0.998-1.126-2.076-1.724-3.235-1.794-1.15-0.069-2.3 0.406-3.45 1.425v0c-1.175 1.041-1.811 2.171-1.908 3.389-0.097 1.218 0.376 2.414 1.417 3.59v0c1.002 1.131 2.094 1.739 3.275 1.824 1.186 0.081 2.357-0.391 3.513-1.415zM236.535 243.159c-0.688-0.777-1.561-0.969-2.618-0.577-1.057 0.392-2.491 1.181-4.302 2.365v0l-1.285 0.823c-0.415 1.334-0.634 2.449-0.656 3.346-0.017 0.902 0.214 1.623 0.693 2.164v0c0.606 0.683 1.439 0.95 2.5 0.799 1.07-0.15 2.202-0.754 3.397-1.812v0c1.367-1.211 2.263-2.497 2.689-3.858 0.427-1.37 0.288-2.454-0.418-3.25z" fill="#297fca" data-fill-palette-color="primary"></path><path d="M255.308 209.926l0.494-0.123 1.518 1.527c-0.082 1.048-0.334 1.961-0.757 2.739v0c-0.625 0.678-1.308 1.094-2.049 1.25-0.738 0.15-1.596 0.02-2.575-0.39v0l-0.157 0.227c0.312 2.516 0.099 4.745-0.64 6.689v0c-1.33 1.907-2.793 3.041-4.39 3.401-1.591 0.364-3.215-0.052-4.872-1.247v0l-4.878-3.461-7.707-5.193 1.892-3.282 11.896 8.643c1.056 0.736 2.057 1.058 3.003 0.965 0.942-0.088 1.755-0.622 2.439-1.603v0c1.112-1.595 1.453-3.732 1.022-6.41v0l-12.835-8.95 1.779-3.12 13.856 9.949c0.544 0.379 0.982 0.561 1.314 0.545 0.341-0.018 0.654-0.232 0.94-0.642v0c0.289-0.415 0.525-0.919 0.707-1.514z" fill="#297fca" data-fill-palette-color="primary"></path><path d="M259.12 180.491l-4.856 12.627 0.092 0.035c2.462 0.955 4.567 1.131 6.316 0.527 1.747-0.598 3.018-1.922 3.814-3.974v0c0.399-1.029 0.629-2.12 0.689-3.273 0.06-1.153-0.051-2.275-0.333-3.363v0l0.392-0.25 2.792 1.686c0.196 2.437-0.104 4.681-0.9 6.732v0c-1.112 2.866-2.902 4.765-5.369 5.695-2.468 0.931-5.297 0.777-8.488-0.46v0c-3.221-1.25-5.466-3.065-6.734-5.445-1.268-2.38-1.363-4.96-0.284-7.741v0c0.91-2.346 2.282-3.902 4.116-4.67 1.83-0.777 3.933-0.704 6.31 0.217v0c0.79 0.306 1.513 0.658 2.17 1.054v0zM248.713 184.242c-0.568 1.464-0.567 2.87 0.002 4.218 0.573 1.357 1.661 2.529 3.264 3.518v0l3.593-9.778-0.583-0.321c-1.494-0.58-2.785-0.668-3.872-0.266-1.08 0.405-1.882 1.282-2.404 2.629z" fill="#297fca" data-fill-palette-color="primary"></path><path d="M4.305 144.431c0-6.374 5.167-11.54 11.54-11.54 6.374 0 11.54 5.167 11.54 11.54 0 6.374-5.167 11.54-11.54 11.541-6.374 0-11.54-5.167-11.54-11.541z" fill="#297fca" data-fill-palette-color="primary"></path><path d="M252.615 144.431c0-6.374 5.167-11.54 11.54-11.54 6.374 0 11.54 5.167 11.54 11.54 0 6.374-5.167 11.54-11.54 11.541-6.374 0-11.54-5.167-11.54-11.541z" fill="#297fca" data-fill-palette-color="primary"></path></g><g id="text-1"></g></svg></g></svg></g></svg></g></svg></g><defs></defs></svg><rect width="280" height="280" fill="none" stroke="none" visibility="hidden"></rect></g></svg></g></svg>